<svg width="42" height="47" viewBox="0 0 42 47" fill="none" xmlns="http://www.w3.org/2000/svg">
<path d="M22.9212 47.0002C22.8549 47.0002 22.7887 47.0002 22.7224 47.0002C20.5363 46.9358 19.1452 45.7769 18.4827 45.0687C18.3502 44.9399 18.1515 44.8756 17.9527 44.8756C17.2903 44.9399 16.2303 44.8112 14.9717 44.103C14.1105 43.5879 13.5805 43.0728 13.3817 42.4934C13.3155 42.3646 13.1168 42.2358 12.918 42.3002C11.9243 42.429 10.2019 42.5578 9.07575 41.592C8.08206 40.6906 7.81708 39.918 7.75083 39.3386C7.75083 39.2098 7.68459 39.0167 7.48585 38.8879C6.75714 38.3084 5.16724 36.7632 5.16724 34.4454C5.16724 33.4797 5.43222 32.5139 6.02844 31.6126C6.09468 31.4838 6.29342 31.4194 6.49216 31.4838C6.62465 31.5482 6.6909 31.7413 6.62465 31.9345C6.16093 32.7715 5.89594 33.6084 5.89594 34.4454C5.89594 36.5057 7.35336 37.8578 8.01582 38.3728C8.2808 38.6304 8.47954 38.8879 8.47954 39.2742C8.47954 39.5961 8.67828 40.3043 9.53948 41.0769C10.4669 41.8495 11.9906 41.7852 12.8518 41.6564C13.3817 41.592 13.8455 41.8495 14.0442 42.3002C14.1767 42.6221 14.5079 43.0728 15.3691 43.5879C16.4953 44.2317 17.489 44.2961 17.9527 44.2961C18.3502 44.2961 18.7477 44.4249 19.0127 44.6824C19.6089 45.2619 20.8676 46.3564 22.7887 46.4208C24.7098 46.4852 25.9023 45.455 26.4322 44.8112C26.6972 44.4893 27.0947 44.3605 27.5584 44.3605C28.0221 44.4249 28.7508 44.3605 29.7445 43.9742C30.8045 43.5235 31.3344 42.8797 31.5332 42.5578C31.7319 42.2358 32.1294 42.0427 32.5269 42.0427H32.5931C35.5079 42.0427 36.3029 40.0468 36.5016 39.2098C36.5679 38.9523 36.7004 38.6947 36.8991 38.566C37.4953 38.0509 38.9527 36.5701 38.9527 34.4454C38.9527 32.9002 38.1578 31.7413 37.4291 31.0331C37.2966 30.9043 37.2966 30.7112 37.4291 30.5824C37.5616 30.4536 37.7603 30.4536 37.8928 30.5824C38.6877 31.355 39.6152 32.7071 39.6152 34.4454C39.6152 36.8276 38.0253 38.4372 37.3628 39.0167C37.2303 39.081 37.1641 39.2098 37.1641 39.3386C36.9653 40.1112 36.1041 42.6865 32.6594 42.6865H32.5931C32.3944 42.6865 32.2619 42.7509 32.1956 42.8797C31.8644 43.3947 31.2682 44.0386 30.0758 44.5536C28.9496 45.0043 28.0884 45.0687 27.5584 45.0043C27.3597 45.0043 27.1609 45.0687 27.0284 45.1975C26.2997 45.8413 24.9748 47.0002 22.9212 47.0002Z" fill="white"/>
<path d="M21.4637 38.3085C12.9842 38.3085 5.36595 33.6729 2.18614 26.5263C1.32494 24.5948 0.596232 22.0838 0.13251 19.1222C-0.397458 16.2249 1.39118 13.3276 4.30601 12.4907C7.0221 11.6537 9.80443 11.4605 12.5868 11.7824C19.4764 12.6194 21.7287 19.1222 22.1262 20.4098C22.7887 20.4742 24.6435 20.9893 26.8297 23.3715C29.4795 16.6112 38.2902 16.9975 40.9401 17.3194C41.47 17.3838 41.9338 17.8345 41.9338 18.3496C42 18.8646 42 19.3153 42 19.8304C42 27.4276 36.8991 33.9948 29.5458 36.8276C29.4795 36.9564 29.347 36.9564 29.2145 36.9564C26.8297 37.8578 24.2461 38.3085 21.4637 38.3085ZM10.0694 12.2975C8.14828 12.2975 6.29339 12.555 4.4385 13.1345C1.85491 13.9071 0.331248 16.4181 0.728725 19.0578C1.25869 21.955 1.92115 24.4016 2.78235 26.2687C5.89592 33.2222 13.2492 37.6646 21.4637 37.6646C24.1136 37.6646 26.6972 37.2139 29.0158 36.3126C29.2808 35.1537 30.407 29.3592 27.6246 25.4318C24.5111 21.1181 21.8612 21.0537 21.795 21.0537C21.6625 21.0537 21.53 20.9249 21.4637 20.7961C21.4637 20.7318 19.5426 13.2633 12.388 12.4263C11.6593 12.3619 10.8644 12.2975 10.0694 12.2975ZM27.2934 23.9509C27.5584 24.2729 27.8896 24.6592 28.1546 25.0455C30.9369 28.8441 30.142 34.1235 29.7445 35.9907C36.5678 33.1578 41.3376 26.977 41.3376 19.766C41.3376 19.3153 41.3376 18.8002 41.2713 18.3496C41.2713 18.1564 41.0726 17.9633 40.8076 17.8989C38.224 17.7057 29.612 17.3194 27.2934 23.9509Z" fill="white"/>
<path d="M39.8139 17.6409C39.6151 17.6409 39.4826 17.4478 39.4826 17.2546C39.4826 17.1903 40.1451 11.0094 37.5615 8.04779C36.7666 7.08204 35.7066 6.56697 34.3817 6.50259C34.3817 6.50259 32.9905 6.37382 31.8643 7.33957C30.9369 8.11218 30.5394 9.39985 30.5394 11.2026C30.5394 11.3314 30.4732 11.4601 30.3407 11.4601C30.2082 11.5245 30.0757 11.5245 30.0095 11.4601C29.7445 11.3314 23.9148 7.66149 17.6214 14.293C17.4889 14.4218 17.2902 14.4218 17.1577 14.293C17.0252 14.1642 17.0252 13.9711 17.1577 13.8423C22.7886 7.98341 28.2208 9.85053 29.877 10.6231C29.9432 8.94916 30.4732 7.66149 31.4669 6.82451C32.7918 5.6656 34.3817 5.85875 34.4479 5.85875C35.9054 5.98752 37.0978 6.56697 38.0252 7.66149C40.7413 10.8163 40.1451 17.0615 40.0789 17.3834C40.1451 17.5766 39.9464 17.6409 39.8139 17.6409Z" fill="white"/>
<path d="M21.7949 11.2028C21.6624 11.2028 21.5962 11.1384 21.5299 11.0096C19.7413 7.9192 17.5552 6.05207 14.9053 5.53701C10.5993 4.82879 6.62456 7.79043 6.62456 7.85481C6.49207 7.98358 6.29333 7.9192 6.16084 7.79043C6.02835 7.66166 6.0946 7.46851 6.22709 7.33974C6.42583 7.21098 10.4668 4.12057 15.0378 5.02194C17.8864 5.53701 20.2713 7.5329 22.1261 10.8165C22.1924 10.9452 22.1261 11.1384 21.9937 11.2671C21.9274 11.2028 21.8612 11.2028 21.7949 11.2028Z" fill="white"/>
<path d="M16.6278 37.793C16.5616 37.793 16.4953 37.793 16.4291 37.7286C7.02214 30.9039 12.1231 18.4779 12.1893 18.3491C12.2556 18.156 12.4543 18.0916 12.6531 18.156C12.8518 18.2204 12.918 18.4135 12.8518 18.6067C12.7855 18.7354 7.94958 30.7108 16.8928 37.2135C17.0253 37.3423 17.0915 37.5354 16.959 37.6642C16.8266 37.7286 16.7603 37.793 16.6278 37.793Z" fill="white"/>
<path d="M11.0631 26.0754C10.9968 26.0754 10.9306 26.0754 10.8643 26.011C5.56466 22.2767 8.41324 16.9973 8.41324 16.9973C8.47948 16.8685 8.67822 16.8041 8.87696 16.8685C9.00945 16.9329 9.0757 17.1261 9.00945 17.3192C8.87696 17.5124 6.42586 22.0836 11.2618 25.5603C11.3943 25.6891 11.4606 25.8822 11.3281 26.011C11.2618 26.011 11.1956 26.0754 11.0631 26.0754Z" fill="white"/>
<path d="M11.858 31.3549C11.7255 31.3549 11.593 31.2905 11.5268 31.0973C11.4605 30.9042 11.593 30.7754 11.7255 30.711C16.8265 29.2946 16.3627 23.2425 16.2965 22.985C16.2965 22.7919 16.429 22.6631 16.6277 22.6631C16.8265 22.6631 16.959 22.7919 16.959 22.985C16.959 23.0494 17.4889 29.8097 11.858 31.3549C11.858 31.3549 11.9243 31.3549 11.858 31.3549Z" fill="white"/>
<path d="M32.3944 35.4752C32.3281 35.4752 32.1956 35.4108 32.1294 35.3464C31.9969 35.2177 31.9969 35.0245 32.1294 34.8958C36.6341 31.0327 35.243 21.5684 35.243 21.504C35.243 21.3108 35.3092 21.1821 35.5079 21.1177C35.7067 21.1177 35.8392 21.1821 35.9054 21.3752C35.9717 21.7615 37.3628 31.2903 32.5931 35.3464C32.5269 35.4108 32.4606 35.4752 32.3944 35.4752Z" fill="white"/>
<path d="M35.6404 28.3289C31.4669 27.8138 31.2682 23.5645 31.2682 23.5001C31.2682 23.307 31.4007 23.1782 31.5994 23.1782C31.7982 23.1782 31.9306 23.307 31.9306 23.5001C31.9306 23.6289 32.0631 27.2344 35.6404 27.6851C35.8392 27.6851 35.9717 27.8782 35.9054 28.0714C35.9717 28.2001 35.8392 28.3289 35.6404 28.3289Z" fill="white"/>
<path d="M19.0789 7.72588C18.8802 7.72588 18.7477 7.53273 18.7477 7.40396C18.8802 5.60122 19.5426 4.1204 20.8676 3.09026C23.5836 0.90122 27.8234 1.3519 27.9559 1.41629C28.1546 1.41629 28.2871 1.60944 28.2209 1.80259C28.2209 1.99574 28.0221 2.12451 27.8234 2.06012C27.7571 2.06012 23.6499 1.60944 21.1988 3.60533C20.0726 4.5067 19.4764 5.79437 19.3439 7.46834C19.4101 7.59711 19.2114 7.72588 19.0789 7.72588Z" fill="white"/>
<path d="M4.57098 13.0699C4.37224 13.0699 4.23975 12.8767 4.23975 12.7479C4.90221 5.60137 12.2555 0 20.8675 0C26.3659 0 31.5331 2.25342 34.6467 6.05205C34.7792 6.18082 34.7129 6.37397 34.5804 6.50274C34.4479 6.63151 34.2492 6.56712 34.1167 6.43836C31.1356 2.83288 26.1672 0.643836 20.8675 0.643836C12.5867 0.643836 5.56467 5.98767 4.90221 12.8123C4.90221 12.9411 4.76971 13.0699 4.57098 13.0699Z" fill="white"/>
</svg>
