<svg width="45" height="70" viewBox="0 0 45 70" fill="none" xmlns="http://www.w3.org/2000/svg">
<path d="M23.7012 70.0001C23.6108 70.0001 23.5204 70.0001 23.417 70.0001C20.6142 69.8864 18.793 68.3965 17.9535 67.5253C17.7856 67.3485 17.5143 67.2475 17.2431 67.2602C16.3777 67.3107 15.0215 67.1718 13.4586 66.2627C12.3866 65.6314 11.6891 64.9369 11.405 64.2046C11.3146 63.9773 11.0304 63.8511 10.7333 63.889C9.50629 64.0783 7.22013 64.192 5.79935 62.9546C4.49481 61.8309 4.17191 60.7703 4.13316 60.0884C4.12024 59.8612 4.004 59.6465 3.79734 59.4824C2.8932 58.7501 0.800781 56.7425 0.800781 53.7753C0.800781 52.4369 1.2141 51.1364 2.0149 49.8991C2.11823 49.7349 2.35072 49.6844 2.51863 49.798C2.68654 49.8991 2.73821 50.1263 2.62196 50.2905C1.88574 51.4142 1.51117 52.5884 1.51117 53.7879C1.51117 56.4647 3.42277 58.2955 4.23649 58.9521C4.59814 59.2425 4.8048 59.6339 4.83063 60.0632C4.85646 60.5177 5.07604 61.4268 6.25141 62.4496C7.45262 63.4975 9.49338 63.3713 10.6042 63.2071C11.2241 63.1061 11.8441 63.4344 12.0508 63.9647C12.2058 64.3687 12.6449 64.9874 13.8074 65.6692C15.2798 66.5405 16.5456 66.6162 17.1785 66.5783C17.6693 66.5531 18.1472 66.7299 18.4572 67.0581C19.2193 67.8536 20.8725 69.2172 23.417 69.3182C25.8711 69.4193 27.4598 68.0177 28.1573 67.1718C28.4802 66.7804 29.0097 66.5783 29.5264 66.6162C30.1205 66.6667 31.1022 66.6162 32.3809 66.0859C33.7887 65.4925 34.4604 64.6718 34.7316 64.2299C34.9641 63.8511 35.442 63.5985 35.9328 63.6238C35.9586 63.6238 35.9845 63.6238 35.9974 63.6238C39.8335 63.6238 40.841 60.9975 41.0993 59.8612C41.1768 59.5329 41.3447 59.2551 41.603 59.0278C42.4038 58.3334 44.2508 56.4016 44.2508 53.6112C44.2508 50.9597 42.3651 49.1289 41.5514 48.4723C41.1768 48.1693 40.9701 47.7526 40.9572 47.298C40.9443 46.7551 40.6989 45.9092 39.601 44.9622C38.3998 43.9142 36.359 44.0405 35.2483 44.2046C34.6283 44.3056 34.0083 43.9773 33.8016 43.447C33.6467 43.043 33.2075 42.4243 32.045 41.7425C30.5726 40.8713 29.3068 40.8081 28.6739 40.8334C28.1831 40.8587 27.7052 40.6819 27.3952 40.3536C26.6332 39.5581 24.9799 38.1945 22.4354 38.0935C19.9426 38.0051 18.3926 39.394 17.6952 40.24C17.566 40.3915 17.3464 40.4167 17.1914 40.2905C17.0364 40.1642 17.0106 39.9496 17.1398 39.798C17.9276 38.8511 19.6455 37.2728 22.4741 37.3864C25.277 37.5001 27.0981 38.99 27.9377 39.8738C28.1056 40.0506 28.3768 40.139 28.6481 40.139C29.5135 40.0884 30.8697 40.2273 32.4325 41.1364C33.5046 41.7677 34.202 42.4622 34.4862 43.1945C34.5766 43.4218 34.8608 43.5607 35.1578 43.5102C36.3849 43.3208 38.671 43.2071 40.0918 44.4445C41.3834 45.5682 41.6676 46.6162 41.6805 47.298C41.6805 47.5379 41.8097 47.7778 42.0163 47.942C42.9076 48.6617 44.9741 50.6693 44.9741 53.6238C44.9741 56.692 42.9463 58.8006 42.0809 59.5581C41.9388 59.6844 41.8484 59.8359 41.8097 60.0127C41.5772 61.0354 40.4793 64.3309 36.0103 64.3309C35.9845 64.3309 35.9586 64.3309 35.9199 64.3309C35.6745 64.3309 35.4549 64.4319 35.3516 64.596C34.9641 65.2273 34.1762 66.0985 32.665 66.7299C31.2572 67.3107 30.1464 67.3738 29.4747 67.3107C29.1906 67.2854 28.9064 67.3991 28.7256 67.6011C27.9894 68.4975 26.3361 70.0001 23.7012 70.0001Z" fill="white"/>
<path d="M21.3246 56.5531C21.1696 56.5531 21.0404 56.4647 20.9888 56.3132C20.9758 56.2753 20.6788 55.5808 19.3484 55.5808C18.0051 55.5808 17.721 56.2879 17.708 56.3132C17.6435 56.4899 17.4368 56.5909 17.2431 56.5278C17.0622 56.4647 16.9589 56.2753 17.0235 56.0859C17.0364 56.0354 17.4626 54.8738 19.3484 54.8738C21.2342 54.8738 21.6604 56.0354 21.6733 56.0859C21.7379 56.2753 21.6346 56.4647 21.4408 56.5278C21.4021 56.5531 21.3633 56.5531 21.3246 56.5531Z" fill="white"/>
<path d="M32.8716 55.846C32.7166 55.846 32.5875 55.7577 32.5358 55.6061C32.5229 55.5683 32.2258 54.8738 30.8954 54.8738C29.5522 54.8738 29.268 55.5809 29.2551 55.6061C29.1905 55.7829 28.9839 55.8839 28.7901 55.8208C28.6093 55.7577 28.506 55.5683 28.5705 55.3789C28.5835 55.3284 29.0097 54.1667 30.8954 54.1667C32.7812 54.1667 33.2074 55.3284 33.2204 55.3789C33.2849 55.5683 33.1816 55.7577 32.9879 55.8208C32.9491 55.846 32.9104 55.846 32.8716 55.846Z" fill="white"/>
<path d="M26.5169 57.904C26.3232 57.904 26.1553 57.7525 26.1553 57.5505V0.353535C26.1553 0.164141 26.3103 0 26.5169 0C26.7236 0 26.8786 0.151515 26.8786 0.353535V57.5505C26.8786 57.7525 26.7236 57.904 26.5169 57.904Z" fill="white"/>
<path d="M36.2945 24.659C31.5414 24.659 27.6665 21.2499 27.6665 17.058C27.6665 14.3686 29.2294 11.9317 31.8514 10.5429C32.0193 10.4545 32.2388 10.5176 32.3422 10.6817C32.4326 10.8585 32.368 11.0605 32.2001 11.1615C29.8235 12.4242 28.4027 14.6338 28.4027 17.058C28.4027 20.8585 31.9418 23.9519 36.3074 23.9519C40.6602 23.9519 44.2121 20.8585 44.2121 17.058C44.2121 14.356 42.391 11.8939 39.5752 10.7827C39.3944 10.707 39.304 10.505 39.3815 10.3282C39.459 10.1514 39.6656 10.0631 39.8465 10.1388C42.9334 11.3636 44.9354 14.0908 44.9354 17.0706C44.9096 21.2499 41.0477 24.659 36.2945 24.659Z" fill="white"/>
<path d="M36.1007 10.0631C35.907 10.0631 35.7391 9.91158 35.7391 9.72219C35.7391 9.69693 35.6745 7.6136 34.4991 6.654C33.9825 6.23734 33.3108 6.09845 32.51 6.22471C32.3163 6.24996 32.1226 6.1237 32.0967 5.93431C32.058 5.74491 32.2001 5.55552 32.3938 5.53027C33.4271 5.36612 34.2796 5.55552 34.9641 6.11107C36.3978 7.27269 36.4624 9.60855 36.4624 9.70956C36.4624 9.89895 36.3074 10.0505 36.1007 10.0631Z" fill="white"/>
<path d="M38.0769 13.4342C37.7152 13.4342 36.5657 13.3585 35.8424 12.3484C35.6874 12.5125 35.4937 12.7019 35.3128 12.8155C34.9254 13.0681 34.3441 13.1817 34.2795 13.1943L33.9566 13.2575L33.8662 12.9544C33.6596 12.2852 33.6467 11.7297 33.6725 11.3635C33.0913 11.3888 32.0838 11.3256 31.3863 10.8206L31.1667 10.6565L31.2701 10.4039C31.283 10.3534 31.7351 9.29282 32.9363 8.82565C33.8533 8.47211 34.9253 8.56049 36.1395 9.0908C36.6819 8.81302 38.361 8.16908 40.4018 9.46959L40.6601 9.63373L40.531 9.91151C40.5051 9.96201 39.9627 11.0857 38.2061 11.3004C38.4644 11.8181 38.7744 12.6135 38.5031 13.2196L38.4127 13.4216L38.1931 13.4342C38.1802 13.4216 38.1415 13.4342 38.0769 13.4342ZM35.9845 11.0857L36.2299 11.6034C36.6432 12.4873 37.4569 12.6767 37.8832 12.7145C37.909 12.2474 37.5602 11.5529 37.3019 11.1741L36.9274 10.6312H37.599C38.8002 10.6312 39.4073 10.1767 39.6914 9.87363C37.8186 8.87615 36.4236 9.74736 36.359 9.78524L36.1911 9.89888L36.0103 9.81049C34.9124 9.30544 33.9696 9.19181 33.2075 9.49484C32.6134 9.72211 32.2646 10.1388 32.0838 10.4166C32.7425 10.7322 33.6983 10.6943 34.0471 10.6438L34.6024 10.5681L34.4475 11.0857C34.4475 11.0857 34.3054 11.6287 34.4733 12.4368C34.6283 12.3863 34.7962 12.3231 34.9254 12.2474C35.1708 12.0958 35.5195 11.6918 35.6357 11.5403L35.9845 11.0857Z" fill="white"/>
<path d="M42.8043 17.8536H41.9518C41.7581 17.8536 41.5901 17.702 41.5901 17.5C41.5901 17.3106 41.7451 17.1465 41.9518 17.1465H42.8043C42.998 17.1465 43.1659 17.298 43.1659 17.5C43.1659 17.6894 42.998 17.8536 42.8043 17.8536Z" fill="white"/>
<path d="M42.6751 19.1792C42.6363 19.1792 42.6105 19.1792 42.5717 19.1666L41.758 18.9393C41.5643 18.8888 41.461 18.6868 41.5126 18.51C41.5643 18.3206 41.758 18.2196 41.9518 18.2701L42.7655 18.4974C42.9592 18.5479 43.0626 18.7499 43.0109 18.9267C42.9721 19.0782 42.8301 19.1792 42.6751 19.1792Z" fill="white"/>
<path d="M42.068 20.2778C42.0034 20.2778 41.9389 20.2651 41.8872 20.2273L41.151 19.8106C40.9831 19.7096 40.9185 19.4949 41.0218 19.3308C41.1251 19.1666 41.3447 19.1035 41.5126 19.2045L42.2488 19.6212C42.4168 19.7222 42.4813 19.9369 42.378 20.101C42.3134 20.2146 42.1843 20.2778 42.068 20.2778Z" fill="white"/>
<path d="M41.3059 21.3636C41.2155 21.3636 41.1122 21.3257 41.0476 21.25L40.4664 20.6565C40.3243 20.5176 40.3372 20.2904 40.4793 20.1641C40.6214 20.0252 40.8539 20.0378 40.983 20.1767L41.5643 20.7702C41.7063 20.9091 41.6934 21.1363 41.5513 21.2626C41.4868 21.3257 41.3964 21.3636 41.3059 21.3636Z" fill="white"/>
<path d="M40.1823 22.2096C40.0402 22.2096 39.911 22.1338 39.8594 22.0076L39.4977 21.25C39.4202 21.0732 39.4977 20.8586 39.6785 20.7828C39.8594 20.6945 40.0789 20.7828 40.1564 20.9596L40.5181 21.7172C40.5956 21.8939 40.5181 22.1086 40.3373 22.1843C40.2856 22.197 40.2339 22.2096 40.1823 22.2096Z" fill="white"/>
<path d="M30.0947 15.5808C30.056 15.5808 30.0043 15.5681 29.9656 15.5555C29.7847 15.4798 29.6943 15.2777 29.7718 15.101L30.0043 14.5328C30.0818 14.356 30.2885 14.2676 30.4693 14.3434C30.6501 14.4192 30.7405 14.6212 30.663 14.7979L30.4305 15.3661C30.3789 15.4924 30.2368 15.5808 30.0947 15.5808Z" fill="white"/>
<path d="M30.0948 19.6212C29.9656 19.6212 29.8494 19.5581 29.7848 19.4444C28.9194 17.9545 29.3844 16.3763 29.3973 16.3131C29.449 16.1237 29.6556 16.0227 29.8494 16.0732C30.0431 16.1237 30.1464 16.3258 30.0948 16.5152C30.0948 16.5278 29.7073 17.8788 30.4177 19.1035C30.521 19.2677 30.4564 19.4823 30.2756 19.5833C30.211 19.6086 30.1464 19.6212 30.0948 19.6212Z" fill="white"/>
<path d="M19.5293 11.8561C18.8577 11.8561 18.1602 11.7425 17.4756 11.5026C14.6082 10.4798 13.0583 7.58841 14.0012 5.06316C14.6728 3.25761 16.494 2.04548 18.6252 1.96973C18.8189 1.96973 18.9868 2.12124 18.9997 2.31064C19.0127 2.50003 18.8447 2.66417 18.651 2.6768C16.804 2.73993 15.2411 3.77528 14.6728 5.30306C13.872 7.46215 15.2282 9.94953 17.721 10.8334C20.2139 11.7172 22.8875 10.6818 23.7012 8.52276C24.2179 7.14649 23.8691 5.60609 22.7842 4.39397C22.655 4.24245 22.6679 4.02781 22.81 3.90154C22.9521 3.77528 23.1846 3.78791 23.3137 3.9268C24.5795 5.32831 24.9799 7.13387 24.3729 8.76266C23.6625 10.6945 21.6992 11.8561 19.5293 11.8561Z" fill="white"/>
<path d="M21.428 5.35351L21.1438 5.18937C21.1051 5.16412 20.7693 4.9621 20.5884 4.70957C20.5368 4.63382 20.4722 4.5328 20.4334 4.43179C19.6585 4.86109 18.8577 4.52018 18.8189 4.50755L18.6123 4.41917L18.5993 4.20452C18.5735 3.80048 18.8447 3.43432 19.1031 3.15654C18.1989 2.62624 18.1344 1.86866 18.1344 1.83079L18.1085 1.52775L18.4056 1.46462C19.878 1.13634 20.7563 1.80553 21.0793 2.13382C21.9188 2.09594 22.5775 2.2727 23.0554 2.68937C23.7013 3.25755 23.74 4.02775 23.74 4.06563L23.7529 4.33078L23.4946 4.40654C22.9909 4.54543 22.4355 4.41917 22.0609 4.29291C21.9834 4.52018 21.8542 4.79796 21.6217 5.08836L21.428 5.35351ZM20.7434 3.2323L20.9243 3.77523C20.9759 3.91412 21.0793 4.1919 21.1697 4.30553C21.1955 4.33078 21.2213 4.35604 21.2472 4.38129C21.428 4.04038 21.4538 3.78786 21.4538 3.78786L21.5055 3.25755L21.9834 3.49745C22.1384 3.58584 22.5646 3.74998 22.9392 3.7626C22.8746 3.58584 22.7713 3.38382 22.5646 3.20705C22.2159 2.90402 21.6734 2.79038 20.963 2.85351L20.7563 2.86614L20.6401 2.702C20.6143 2.66412 20.0847 2.00755 18.9739 2.09594C19.1031 2.29796 19.3614 2.56311 19.878 2.73988L20.5109 2.96715L19.9685 3.35856C19.7747 3.49745 19.5293 3.73735 19.4001 3.93937C19.6456 3.96462 20.0072 3.93937 20.3301 3.63634L20.7434 3.2323Z" fill="white"/>
<path d="M15.7707 6.33835C15.732 6.33835 15.6932 6.32572 15.6416 6.31309L15.1378 6.13633C14.9441 6.0732 14.8537 5.87118 14.9183 5.68178C14.9828 5.50502 15.1895 5.40401 15.3832 5.46714L15.887 5.6439C16.0807 5.70704 16.1711 5.90905 16.1065 6.09845C16.0549 6.24996 15.9128 6.33835 15.7707 6.33835Z" fill="white"/>
<path d="M15.5898 7.00753C15.5769 7.00753 15.5769 7.00753 15.564 7.00753L15.0344 6.96965C14.8407 6.95703 14.6857 6.78026 14.6986 6.59086C14.7115 6.40147 14.8795 6.24995 15.0861 6.26258L15.6157 6.30046C15.8094 6.31308 15.9644 6.48985 15.9515 6.67925C15.9257 6.86864 15.7707 7.00753 15.5898 7.00753Z" fill="white"/>
<path d="M15.1765 7.73992C15.0086 7.73992 14.8536 7.62628 14.8278 7.44952C14.789 7.26012 14.9182 7.07073 15.1248 7.04548L15.6415 6.9571C15.8352 6.93184 16.029 7.04548 16.0548 7.2475C16.0936 7.43689 15.9644 7.62628 15.7577 7.65154L15.2411 7.73992C15.2153 7.73992 15.1894 7.73992 15.1765 7.73992Z" fill="white"/>
<path d="M15.3703 8.5353C15.2411 8.5353 15.112 8.45955 15.0474 8.33328C14.957 8.15652 15.0345 7.94187 15.2153 7.86611L15.6932 7.63884C15.874 7.55046 16.0936 7.62621 16.1711 7.80298C16.2615 7.97975 16.184 8.19439 16.0032 8.27015L15.5253 8.49742C15.4866 8.52268 15.4349 8.5353 15.3703 8.5353Z" fill="white"/>
<path d="M15.8611 9.28032C15.7707 9.28032 15.6803 9.24244 15.6028 9.17931C15.4607 9.04042 15.4607 8.81315 15.6028 8.68688L15.9773 8.32072C16.1194 8.18183 16.3519 8.18183 16.4811 8.32072C16.6232 8.45961 16.6232 8.68688 16.4811 8.81315L16.1065 9.17931C16.0419 9.24244 15.9515 9.28032 15.8611 9.28032Z" fill="white"/>
<path d="M23.2363 7.48728C23.0425 7.48728 22.8875 7.33576 22.8746 7.14637L22.8617 6.75496C22.8617 6.56556 23.0167 6.40142 23.2104 6.38879C23.4042 6.38879 23.5721 6.54031 23.585 6.7297L23.5979 7.12112C23.5979 7.32314 23.4429 7.48728 23.2363 7.48728Z" fill="white"/>
<path d="M22.3451 9.87371C22.2418 9.87371 22.1384 9.83583 22.0738 9.74745C21.9447 9.59593 21.9576 9.38129 22.1126 9.25503C22.7455 8.72472 22.823 7.90402 22.823 7.89139C22.8359 7.702 22.9909 7.57574 23.2105 7.56311C23.4042 7.57574 23.5592 7.73988 23.5463 7.9419C23.5463 7.9924 23.4688 9.06563 22.5905 9.79795C22.513 9.83583 22.4226 9.87371 22.3451 9.87371Z" fill="white"/>
<path d="M9.63548 53.4217C4.32692 53.4217 0 49.6212 0 44.9368C0 41.6035 2.2345 38.5606 5.68312 37.1969C5.86395 37.1212 6.08353 37.2095 6.14811 37.3863C6.2256 37.5631 6.13519 37.7777 5.95436 37.8409C2.77698 39.1035 0.723307 41.8813 0.723307 44.9368C0.723307 49.2297 4.72732 52.7146 9.63548 52.7146C14.5565 52.7146 18.5476 49.2171 18.5476 44.9368C18.5476 42.1969 16.946 39.7095 14.2595 38.2828C14.0786 38.1944 14.0141 37.9797 14.1174 37.803C14.2078 37.6262 14.4403 37.5631 14.6082 37.6641C17.5273 39.2171 19.2839 41.9318 19.2839 44.9368C19.271 49.6212 14.944 53.4217 9.63548 53.4217Z" fill="white"/>
<path d="M24.3858 39.6464C24.2437 39.6464 24.1016 39.5581 24.05 39.4192C24.0241 39.356 21.5184 33.2954 17.3594 32.2727C15.564 31.8308 13.6783 32.399 11.7796 33.9646C10.5913 34.9368 10.2296 36.7298 10.2167 36.7424C10.178 36.9318 9.98423 37.058 9.79048 37.0202C9.59674 36.9823 9.46758 36.7929 9.50632 36.6035C9.51924 36.5151 9.91964 34.558 11.3146 33.4091C13.407 31.6919 15.4994 31.0732 17.5402 31.5782C22.0609 32.6894 24.6183 38.8889 24.7216 39.154C24.7991 39.3308 24.7087 39.5454 24.515 39.6086C24.4762 39.6338 24.4375 39.6464 24.3858 39.6464Z" fill="white"/>
<path d="M7.63349 40.8207C7.56891 40.8207 7.53016 40.8207 7.51725 40.8207L7.29767 40.8081L7.20726 40.6061C6.91019 39.9117 7.27184 39.0026 7.56891 38.4344C5.5669 38.2197 4.94693 36.9571 4.92109 36.894L4.79193 36.6162L5.05025 36.4521C7.33642 35 9.22218 35.745 9.80341 36.0354C11.1596 35.442 12.3737 35.341 13.3812 35.7324C14.7116 36.25 15.2024 37.4243 15.2282 37.4748L15.3315 37.7273L15.112 37.8915C14.3241 38.4723 13.1745 38.5101 12.5287 38.4975C12.5675 38.9016 12.5546 39.5455 12.3221 40.3283L12.2317 40.6314L11.9088 40.5682C11.8313 40.5556 11.1984 40.4167 10.7592 40.1389C10.5526 40 10.3201 39.7728 10.1263 39.5834C9.33843 40.7197 8.03389 40.8207 7.63349 40.8207ZM5.76065 36.8435C6.05772 37.1844 6.75519 37.7526 8.17597 37.7526H8.84761L8.47304 38.2955C8.16306 38.75 7.77557 39.5708 7.81432 40.1011C8.2793 40.0632 9.26093 39.8612 9.75175 38.8132L9.99716 38.2955L10.3588 38.7374C10.488 38.9016 10.8884 39.3561 11.1725 39.5329C11.3275 39.6339 11.5471 39.7096 11.7279 39.7728C11.9475 38.8384 11.7667 38.1945 11.7667 38.1819L11.6246 37.6642L12.1671 37.7399C12.18 37.7399 13.5233 37.9167 14.4403 37.4622C14.2466 37.1465 13.8333 36.6288 13.1229 36.3637C12.2575 36.0354 11.1854 36.1617 9.94549 36.7298L9.76466 36.8182L9.59675 36.7046C9.51926 36.6793 7.90473 35.6692 5.76065 36.8435Z" fill="white"/>
<path d="M3.28071 45.7828H2.32491C2.13117 45.7828 1.96326 45.6312 1.96326 45.4292C1.96326 45.2398 2.11825 45.0757 2.32491 45.0757H3.28071C3.47445 45.0757 3.64236 45.2272 3.64236 45.4292C3.64236 45.6312 3.48737 45.7828 3.28071 45.7828Z" fill="white"/>
<path d="M2.4799 47.2727C2.32491 47.2727 2.18283 47.1717 2.13116 47.0202C2.0795 46.8308 2.19574 46.6414 2.37657 46.5909L3.29362 46.3383C3.48736 46.2878 3.68111 46.4015 3.73277 46.5782C3.78444 46.7676 3.66819 46.957 3.48736 47.0075L2.57031 47.2601C2.54448 47.2727 2.50573 47.2727 2.4799 47.2727Z" fill="white"/>
<path d="M3.15156 48.5101C3.0224 48.5101 2.90615 48.4469 2.84157 48.3333C2.73824 48.1691 2.80282 47.9545 2.97073 47.8535L3.79737 47.3863C3.96528 47.2853 4.18486 47.3484 4.28819 47.5126C4.39152 47.6767 4.32694 47.8914 4.15903 47.9924L3.33239 48.4595C3.28072 48.4848 3.21614 48.5101 3.15156 48.5101Z" fill="white"/>
<path d="M4.00397 49.7222C3.91355 49.7222 3.82314 49.6843 3.75856 49.6212C3.61648 49.4823 3.61648 49.2677 3.74564 49.1288L4.40437 48.4596C4.54645 48.3207 4.76602 48.3207 4.9081 48.4469C5.05018 48.5858 5.05018 48.8005 4.92102 48.9394L4.26229 49.6086C4.18479 49.6843 4.09438 49.7222 4.00397 49.7222Z" fill="white"/>
<path d="M5.2698 50.6818C5.21813 50.6818 5.16647 50.6692 5.1148 50.6439C4.93398 50.5681 4.85648 50.3535 4.93398 50.1767L5.33438 49.3308C5.42479 49.154 5.63145 49.0783 5.81228 49.154C5.9931 49.2298 6.0706 49.4444 5.99311 49.6212L5.5927 50.4671C5.54104 50.606 5.41188 50.6818 5.2698 50.6818Z" fill="white"/>
<path d="M16.5973 43.2323C16.4552 43.2323 16.326 43.1439 16.2614 43.005L15.9902 42.3611C15.9127 42.1843 16.0031 41.9696 16.1839 41.9065C16.3648 41.8308 16.5714 41.9191 16.6489 42.0959L16.9202 42.7398C16.9977 42.9166 16.9072 43.1313 16.7264 43.1944C16.6877 43.2196 16.636 43.2323 16.5973 43.2323Z" fill="white"/>
<path d="M16.5972 47.7778C16.5327 47.7778 16.481 47.7652 16.4164 47.7273C16.2485 47.6263 16.1839 47.4116 16.2743 47.2475C17.0881 45.846 16.636 44.3308 16.636 44.3056C16.5843 44.1162 16.6877 43.9268 16.8814 43.8636C17.0751 43.8131 17.2689 43.9141 17.3335 44.1035C17.3593 44.1793 17.863 45.9217 16.9072 47.5884C16.8427 47.7147 16.7264 47.7778 16.5972 47.7778Z" fill="white"/>
<path d="M32.6521 9.5833C32.4584 9.5833 32.2905 9.43179 32.2905 9.24239C32.2388 6.28785 31.3347 4.20451 29.6298 3.05552C26.4265 0.90906 21.3376 2.70199 21.2859 2.71462C21.1051 2.77775 20.8855 2.68936 20.8209 2.49997C20.7563 2.31058 20.8467 2.10855 21.0405 2.04542C21.2601 1.96967 26.517 0.113605 30.0431 2.46209C31.9547 3.73734 32.9621 6.01007 33.0267 9.21714C33.0138 9.41916 32.8588 9.5833 32.6521 9.5833Z" fill="white"/>
<path d="M22.0996 57.6137C21.9834 57.6137 21.8671 57.5632 21.8025 57.4622C21.5055 57.0455 14.802 47.0455 30.818 30.6692C32.8717 28.5733 34.3183 26.3763 35.145 24.1415C35.2095 23.9521 35.4162 23.8637 35.6099 23.9268C35.8037 23.99 35.8941 24.192 35.8295 24.3814C34.977 26.7172 33.4659 28.99 31.3476 31.1617C15.7319 47.1213 22.3321 56.9697 22.3967 57.0581C22.5129 57.2223 22.4742 57.4369 22.3063 57.5506C22.2417 57.6011 22.1642 57.6137 22.0996 57.6137Z" fill="white"/>
<path d="M29.1389 32.096C26.6978 32.096 19.6326 30.846 10.1651 18.2829C10.0488 18.1313 10.0876 17.9041 10.2426 17.7904C10.3976 17.6768 10.63 17.7147 10.7463 17.8662C21.9963 32.7904 29.8235 31.351 29.901 31.3384C30.0947 31.3005 30.2885 31.4142 30.3272 31.6036C30.366 31.793 30.2497 31.9824 30.056 32.0202C29.9914 32.0329 29.6814 32.096 29.1389 32.096Z" fill="white"/>
<path d="M10.6559 18.4848L10.3717 18.4217C8.30512 17.9671 6.83268 16.9949 5.98021 15.5303C4.43026 12.8535 5.51522 9.53278 5.56689 9.38126L5.68313 9.05298L6.01896 9.15399C6.17395 9.20449 9.71299 10.303 11.0175 13.1313C11.715 14.6464 11.6375 16.351 10.785 18.207L10.6559 18.4848ZM6.14812 9.96207C5.92854 10.8585 5.48939 13.2575 6.6131 15.1893C7.32349 16.4015 8.53761 17.2348 10.2425 17.6641C10.9013 16.1111 10.94 14.6843 10.3588 13.4343C9.41591 11.3762 7.05225 10.303 6.14812 9.96207Z" fill="white"/>
<path d="M12.8516 21.4647L12.787 21.1869C12.2833 19.1793 12.5287 17.4621 13.4974 16.0606C15.2669 13.5101 18.793 12.9925 18.948 12.9798L19.2968 12.9293L19.3484 13.2702C19.3743 13.4217 19.9296 17.0202 17.9018 19.4192C16.8169 20.7071 15.2152 21.3889 13.1357 21.4647H12.8516ZM18.6768 13.75C17.7597 13.952 15.3573 14.6339 14.0915 16.4647C13.2907 17.6263 13.0582 19.0657 13.4199 20.745C15.1378 20.6313 16.4681 20.0379 17.3593 18.9773C18.8189 17.2223 18.7672 14.6844 18.6768 13.75Z" fill="white"/>
<path d="M30.663 38.7248C29.1518 38.7248 27.7052 38.0935 26.3361 36.8561L26.1165 36.6541L26.2715 36.4142C27.3694 34.6465 28.7902 33.5985 30.4822 33.2829C33.5692 32.7021 36.4495 34.7854 36.5657 34.8738L36.8499 35.0758L36.6432 35.3536C36.5528 35.4798 34.3441 38.3965 31.1797 38.6995C31.0118 38.7122 30.8438 38.7248 30.663 38.7248ZM27.0465 36.5278C28.351 37.6389 29.7072 38.1313 31.1151 37.9925C33.4142 37.7778 35.2095 35.9344 35.8295 35.2147C35.0416 34.7223 32.8459 33.548 30.6243 33.9647C29.2164 34.2298 28.0152 35.0884 27.0465 36.5278Z" fill="white"/>
<path d="M17.3593 25.2273C17.1139 25.2273 16.8685 25.2147 16.6102 25.1894L16.3131 25.1515L16.2873 24.8611C16.1452 23.346 16.5198 22.1086 17.3852 21.1995C18.948 19.5328 21.5442 19.5581 21.6992 19.5328H22.0479V19.8737C22.0479 19.9874 22.0479 22.6515 20.3171 24.1919C19.5422 24.8737 18.5605 25.2273 17.3593 25.2273ZM16.9977 24.5076C18.1731 24.5833 19.1289 24.3056 19.8393 23.6742C20.9888 22.6641 21.26 20.9975 21.3246 20.2525C20.5884 20.3157 18.961 20.5808 17.9277 21.6793C17.256 22.3864 16.946 23.3333 16.9977 24.5076Z" fill="white"/>
<path d="M7.16851 24.9874C5.65731 24.9874 4.2107 24.356 2.84158 23.1187L2.62201 22.9166L2.777 22.6767C3.87488 20.9091 5.29566 19.8611 6.98768 19.5454C10.0746 18.9646 12.955 21.048 13.0712 21.1363L13.3554 21.3384L13.1487 21.6161C13.0583 21.7424 10.8496 24.6591 7.68515 24.9621C7.51724 24.9747 7.33642 24.9874 7.16851 24.9874ZM3.55197 22.7904C4.85651 23.9015 6.21271 24.3939 7.62057 24.255C9.91966 24.0404 11.715 22.1969 12.335 21.4773C11.5471 20.9848 9.35134 19.798 7.12976 20.2273C5.70898 20.4924 4.50777 21.351 3.55197 22.7904Z" fill="white"/>
<path d="M11.9991 30.4672C11.7537 30.4672 11.5083 30.4545 11.25 30.4293L10.9529 30.3914L10.9271 30.101C10.785 28.5858 11.1596 27.3485 12.025 26.4394C13.5878 24.7727 16.1969 24.7727 16.339 24.7727H16.6877V25.1136C16.6877 25.2273 16.6877 27.8914 14.9569 29.4318C14.182 30.1262 13.1874 30.4672 11.9991 30.4672ZM11.6246 29.7601C12.7999 29.8232 13.7557 29.5581 14.4661 28.9267C15.6157 27.9166 15.8869 26.25 15.9515 25.505C15.2153 25.5682 13.5878 25.8333 12.5545 26.9318C11.8829 27.6262 11.5729 28.5858 11.6246 29.7601Z" fill="white"/>
</svg>
