<svg width="44" height="75" viewBox="0 0 44 75" fill="none" xmlns="http://www.w3.org/2000/svg">
<path d="M22.6244 11.9335C20.2003 11.9335 18.2905 9.96979 18.2905 7.47734C18.2905 5.13595 22.1836 0.528701 22.3305 0.302115L22.6244 0L22.9182 0.302115C23.0651 0.528701 26.9582 5.13595 26.9582 7.47734C26.9582 9.96979 25.0484 11.9335 22.6244 11.9335ZM22.6244 1.13293C21.3756 2.6435 19.025 5.89124 19.025 7.47734C19.025 9.51662 20.641 11.1782 22.6244 11.1782C24.6077 11.1782 26.2237 9.51662 26.2237 7.47734C26.2237 5.89124 23.8731 2.6435 22.6244 1.13293Z" fill="white"/>
<path d="M22.2571 9.51649C22.1102 9.51649 21.9632 9.36544 21.8898 9.21438C21.5225 7.40169 19.7596 6.6464 19.7596 6.6464C19.5392 6.57087 19.4657 6.34429 19.5392 6.1177C19.6127 5.89112 19.833 5.81559 19.9799 5.89112C20.0534 5.89112 22.1836 6.79746 22.5509 8.98779C22.6243 9.28991 22.4774 9.44097 22.2571 9.51649Z" fill="white"/>
<path d="M22.9916 9.51665C22.6978 9.44112 22.6243 9.29006 22.6243 9.06348C23.0651 6.87314 25.1218 5.9668 25.1953 5.9668C25.3422 5.89127 25.5626 5.9668 25.636 6.19339C25.7095 6.41997 25.636 6.57103 25.4156 6.72209C25.4156 6.72209 23.5793 7.47737 23.2854 9.29006C23.3589 9.36559 23.212 9.51665 22.9916 9.51665Z" fill="white"/>
<path d="M28.3539 19.26C27.2521 19.26 26.1502 18.8068 25.2688 17.976C23.5793 16.2388 23.5793 13.4442 25.2688 11.7071C26.8848 10.0455 32.8347 9.59229 33.0551 9.59229H33.4958V10.0455C33.4958 10.272 33.0551 16.3899 31.439 18.0515C30.631 18.8823 29.4557 19.26 28.3539 19.26ZM32.7612 10.3476C30.8514 10.4986 26.9582 11.1029 25.8564 12.2358C25.1953 12.9155 24.828 13.8974 24.828 14.8793C24.828 15.8612 25.1953 16.7675 25.8564 17.5228C26.5175 18.2781 27.4724 18.5802 28.4274 18.5802C29.3823 18.5802 30.2638 18.2026 30.9983 17.5228C32.0267 16.3143 32.6143 12.3113 32.7612 10.3476Z" fill="white"/>
<path d="M26.9583 16.0879C26.8848 16.0879 26.8113 16.0879 26.7379 16.0123C26.591 15.8613 26.5175 15.6347 26.6644 15.4836C27.6928 13.9731 26.8848 12.0849 26.8848 12.0849C26.8113 11.8583 26.8848 11.7072 27.1052 11.5562C27.3255 11.4806 27.4724 11.5562 27.6194 11.7827C27.6928 11.8583 28.5008 13.9731 27.3255 15.8613C27.1786 16.0123 27.1052 16.0879 26.9583 16.0879Z" fill="white"/>
<path d="M27.5459 16.6166C27.399 16.6166 27.3255 16.5411 27.2521 16.4656C27.1052 16.3145 27.1786 16.0879 27.3255 15.9369C29.1619 14.6529 31.2187 15.5592 31.2921 15.6347C31.5125 15.7103 31.586 15.9369 31.5125 16.1634C31.4391 16.39 31.2187 16.4656 30.9983 16.39C30.9983 16.39 29.1619 15.6347 27.6928 16.6166C27.6928 16.6166 27.6194 16.6166 27.5459 16.6166Z" fill="white"/>
<path d="M16.5275 19.2598C15.3522 19.2598 14.2504 18.8066 13.4424 17.9758C11.8264 16.3142 11.3856 10.1964 11.3856 9.96977V9.5166H11.8264C12.0467 9.5166 17.9966 9.96977 19.6127 11.6314C21.3021 13.3686 21.3021 16.1631 19.6127 17.9003C18.7312 18.8066 17.6294 19.2598 16.5275 19.2598ZM12.1202 10.3474C12.2671 12.3112 12.8547 16.3142 13.9566 17.4471C14.6177 18.1269 15.5726 18.5045 16.5275 18.5045C17.4824 18.5045 18.3639 18.1269 19.0985 17.4471C19.833 16.7674 20.1269 15.7855 20.1269 14.8036C20.1269 13.8217 19.7596 12.9154 19.0985 12.1601C17.9232 11.1027 14.03 10.4985 12.1202 10.3474Z" fill="white"/>
<path d="M17.9232 16.0875C17.7763 16.0875 17.7028 16.012 17.6294 15.9365C16.3806 14.0483 17.2621 11.9335 17.3355 11.8579C17.409 11.6314 17.6294 11.5558 17.8497 11.6314C18.0701 11.7069 18.1435 11.9335 18.0701 12.1601C18.0701 12.1601 17.3355 14.0483 18.2905 15.5588C18.4374 15.7099 18.3639 15.9365 18.217 16.0875C18.0701 16.0875 17.9966 16.0875 17.9232 16.0875Z" fill="white"/>
<path d="M17.3356 16.6164C17.2621 16.6164 17.1886 16.6164 17.1152 16.5408C15.6461 15.4834 13.8097 16.3143 13.8097 16.3143C13.5893 16.3898 13.4424 16.3143 13.2955 16.0877C13.222 15.8611 13.2955 15.71 13.5159 15.559C13.5893 15.4834 15.6461 14.6526 17.4825 15.8611C17.6294 16.0121 17.7028 16.2387 17.5559 16.3898C17.5559 16.6164 17.4825 16.6164 17.3356 16.6164Z" fill="white"/>
<path d="M14.6177 28.4741C13.9566 28.4741 13.369 28.323 12.7079 28.0209C10.6511 26.9635 8.30051 21.3744 8.1536 21.1478L8.08014 20.7701L8.52087 20.6191C8.74124 20.5436 14.4708 18.9575 16.601 19.9393C17.6294 20.468 18.4374 21.3744 18.8047 22.5073C19.172 23.6402 19.0985 24.8487 18.5843 25.9061C18.0701 26.9635 17.1887 27.7943 16.0868 28.172C15.5726 28.3985 15.1319 28.4741 14.6177 28.4741ZM9.03506 21.2988C9.84308 23.036 11.606 26.6614 13.0751 27.4167C13.9566 27.8698 14.9115 27.8698 15.793 27.5677C16.6745 27.2656 17.409 26.5859 17.8498 25.6795C18.2905 24.7732 18.2905 23.7913 17.9967 22.8849C17.7028 21.9786 17.0417 21.1478 16.1603 20.6946C14.7646 20.0149 10.8715 20.8457 9.03506 21.2988Z" fill="white"/>
<path d="M16.2337 24.7731C16.1603 24.7731 16.0868 24.7731 16.0134 24.6975C14.2504 23.338 14.3973 20.9966 14.3973 20.9211C14.3973 20.6945 14.6177 20.5435 14.7646 20.5435C14.985 20.5435 15.1319 20.77 15.1319 20.9211C15.1319 20.9211 15.0584 22.9604 16.4541 24.0178C16.601 24.1688 16.6745 24.3954 16.5276 24.5465C16.4541 24.6975 16.3072 24.7731 16.2337 24.7731Z" fill="white"/>
<path d="M12.3406 26.4346C12.2671 26.4346 12.1202 26.3591 12.0468 26.2836C11.8999 26.1325 11.8999 25.9059 12.0468 25.7549C12.1202 25.6793 13.8097 24.1688 15.9399 24.6975C16.1603 24.773 16.2337 24.924 16.2337 25.1506C16.1603 25.3772 16.0134 25.4527 15.793 25.4527C14.0301 24.9996 12.6344 26.2836 12.6344 26.3591C12.561 26.4346 12.414 26.4346 12.3406 26.4346Z" fill="white"/>
<path d="M13.0751 38.444C12.414 38.444 11.6794 38.2929 11.0918 37.9908C8.88812 36.9334 6.31717 30.8911 6.24371 30.6645L6.0968 30.2114L6.53754 30.0603C6.83136 29.9848 12.9282 28.2476 15.1319 29.3806C16.2337 29.9093 17.1152 30.8911 17.4824 32.0996C17.9232 33.3081 17.8497 34.592 17.2621 35.725C16.7479 36.8579 15.793 37.7642 14.6177 38.1419C14.1035 38.3685 13.5893 38.444 13.0751 38.444ZM7.05173 30.7401C7.85974 32.6283 9.84305 36.5558 11.3856 37.3111C12.3405 37.7642 13.3689 37.8398 14.3238 37.4621C15.2788 37.0845 16.0868 36.4047 16.5275 35.4229C16.9683 34.441 17.0417 33.3836 16.6744 32.4017C16.3072 31.4198 15.6461 30.589 14.6911 30.1359C13.222 29.3806 9.03503 30.2114 7.05173 30.7401Z" fill="white"/>
<path d="M14.7646 34.4411C14.6911 34.4411 14.6177 34.4411 14.5442 34.3655C12.7078 32.9305 12.7813 30.438 12.8547 30.3625C12.8547 30.1359 13.0751 29.9849 13.222 29.9849C13.4424 29.9849 13.5893 30.2114 13.5893 30.3625C13.5893 30.3625 13.4424 32.5528 14.985 33.6858C15.1319 33.8368 15.2053 34.0634 15.0584 34.2145C14.985 34.3655 14.9115 34.4411 14.7646 34.4411Z" fill="white"/>
<path d="M10.6511 36.2538C10.5776 36.2538 10.4307 36.1783 10.3573 36.1027C10.2103 35.9517 10.2103 35.7251 10.3573 35.574C10.4307 35.4985 12.1936 33.8369 14.4708 34.4411C14.6911 34.5166 14.7646 34.6677 14.7646 34.8943C14.7646 35.1209 14.5442 35.1964 14.3239 35.1964C12.414 34.6677 10.8714 36.1027 10.8714 36.1783C10.798 36.2538 10.7245 36.2538 10.6511 36.2538Z" fill="white"/>
<path d="M11.8998 48.2629C11.2387 48.2629 10.5042 48.1118 9.91653 47.8097C7.71286 46.7523 5.14191 40.71 5.06845 40.4834L4.84808 40.0302L5.28882 39.8792C5.58264 39.8036 11.6795 38.0665 13.8831 39.1994C14.985 39.7281 15.8664 40.71 16.2337 41.9184C16.6745 43.1269 16.601 44.4109 16.0134 45.5438C15.4992 46.6768 14.5442 47.5831 13.369 47.9607C12.9282 48.1118 12.414 48.2629 11.8998 48.2629ZM5.87646 40.4834C6.68448 42.3716 8.66778 46.2991 10.2104 47.0544C11.1653 47.5076 12.1937 47.5831 13.1486 47.2055C14.1035 46.8278 14.9115 46.1481 15.3523 45.1662C15.793 44.1843 15.8664 43.1269 15.4992 42.145C15.1319 41.1632 14.4708 40.3323 13.5159 39.8792C12.0467 39.1239 7.85977 40.0302 5.87646 40.4834Z" fill="white"/>
<path d="M13.5893 44.2599C13.5158 44.2599 13.4424 44.2599 13.3689 44.1844C11.5325 42.7493 11.606 40.2569 11.6794 40.1814C11.6794 39.9548 11.8998 39.8037 12.0467 39.8037C12.2671 39.8037 12.414 40.0303 12.414 40.1814C12.414 40.1814 12.2671 42.3717 13.8097 43.5046C13.9566 43.6557 14.03 43.8823 13.8831 44.0333C13.8097 44.1844 13.7362 44.2599 13.5893 44.2599Z" fill="white"/>
<path d="M9.47578 46.0726C9.40233 46.0726 9.25542 45.9971 9.18196 45.9216C9.03505 45.7705 9.03505 45.5439 9.18196 45.3929C9.25542 45.3173 11.0184 43.6557 13.2955 44.2599C13.5159 44.3355 13.5893 44.4865 13.5893 44.7131C13.5159 44.9397 13.3689 45.0152 13.1486 45.0152C11.3122 44.5621 9.69615 45.9216 9.69615 45.9971C9.6227 45.9971 9.54924 46.0726 9.47578 46.0726Z" fill="white"/>
<path d="M20.6411 62.0844C20.4207 62.0844 20.2738 61.9333 20.2738 61.7067L22.2571 11.5557H22.9917L24.975 61.2535C24.975 61.4801 24.8281 61.6312 24.6077 61.6312C24.3873 61.6312 24.2404 61.4801 24.2404 61.2535L22.6244 20.7702L21.0084 61.6312C21.0084 61.9333 20.8614 62.0844 20.6411 62.0844Z" fill="white"/>
<path d="M22.2571 20.9216C22.1837 20.9216 22.0368 20.8461 21.9633 20.7706L19.2454 17.7494C19.0985 17.5984 19.0985 17.3718 19.2454 17.2207C19.3923 17.0697 19.6127 17.0697 19.7596 17.2207L22.4775 20.2419C22.6244 20.3929 22.6244 20.6195 22.4775 20.7706C22.404 20.8461 22.3306 20.9216 22.2571 20.9216Z" fill="white"/>
<path d="M23.0651 20.9216C22.9917 20.9216 22.9182 20.9216 22.8447 20.8461C22.6978 20.695 22.6978 20.4684 22.8447 20.3174L25.4157 17.4473C25.5626 17.2962 25.783 17.2962 25.9299 17.4473C26.0768 17.5983 26.0768 17.8249 25.9299 17.976L23.3589 20.8461C23.2855 20.8461 23.1386 20.9216 23.0651 20.9216Z" fill="white"/>
<path d="M22.0367 28.8519C21.9633 28.8519 21.8898 28.8519 21.8163 28.7764L18.0701 25.9063C17.9232 25.7552 17.8497 25.5287 17.9966 25.3776C18.1436 25.2265 18.3639 25.151 18.5108 25.3021L22.2571 28.1722C22.404 28.3232 22.4774 28.5498 22.3305 28.7009C22.2571 28.8519 22.1102 28.8519 22.0367 28.8519Z" fill="white"/>
<path d="M21.4491 40.4833C21.3756 40.4833 21.2287 40.4833 21.1553 40.4078L16.8214 35.9516C16.6745 35.8005 16.6745 35.5739 16.8214 35.4229C16.9683 35.2718 17.1886 35.2718 17.3356 35.4229L21.6694 39.8791C21.8164 40.0301 21.8164 40.2567 21.6694 40.4078C21.596 40.4833 21.5225 40.4833 21.4491 40.4833Z" fill="white"/>
<path d="M21.0818 49.4714C21.0084 49.4714 20.9349 49.4714 20.8615 49.3958L15.8665 45.0152C15.7195 44.8641 15.7195 44.6375 15.793 44.4865C15.9399 44.3354 16.1603 44.3354 16.3072 44.4109L21.3022 48.7916C21.4491 48.9427 21.4491 49.1692 21.3756 49.3203C21.3022 49.4714 21.1553 49.4714 21.0818 49.4714Z" fill="white"/>
<path d="M30.631 28.4743C29.015 28.4743 27.4724 27.5679 26.7379 25.9818C26.2237 24.9244 26.1502 23.716 26.5175 22.583C26.8848 21.4501 27.6928 20.5438 28.7212 20.0151C30.7779 18.9577 36.5075 20.6193 36.8013 20.6948L37.2421 20.8459L37.0951 21.2235C37.0217 21.4501 34.6711 27.0392 32.5409 28.0966C31.8798 28.3232 31.2921 28.4743 30.631 28.4743ZM30.7045 20.4682C30.0434 20.4682 29.4557 20.5438 29.015 20.7703C28.1335 21.2235 27.4724 21.9788 27.1786 22.8851C26.8848 23.7915 26.8848 24.8489 27.3255 25.6797C28.207 27.4924 30.3372 28.3232 32.1002 27.4169C33.4958 26.7371 35.3322 23.1117 36.1402 21.299C34.8915 20.9214 32.4674 20.4682 30.7045 20.4682Z" fill="white"/>
<path d="M29.015 24.7732C28.8681 24.7732 28.7946 24.6977 28.7212 24.6222C28.5743 24.4711 28.6477 24.2445 28.7946 24.0935C30.1903 22.9605 30.1169 20.9968 30.1169 20.9968C30.1169 20.7702 30.2638 20.6191 30.4841 20.6191C30.7045 20.6191 30.8514 20.7702 30.8514 20.9968C30.8514 21.0723 30.9983 23.4137 29.2354 24.7732C29.1619 24.6977 29.0885 24.7732 29.015 24.7732Z" fill="white"/>
<path d="M32.9081 26.4351C32.8347 26.4351 32.7612 26.4351 32.6878 26.3596C32.6878 26.3596 31.2187 25.0001 29.5292 25.4532C29.3088 25.5288 29.1619 25.3777 29.0884 25.1511C29.015 24.9245 29.1619 24.7735 29.3823 24.6979C31.5125 24.1692 33.202 25.6798 33.2754 25.7553C33.4223 25.9064 33.4223 26.133 33.2754 26.284C33.1285 26.4351 32.9816 26.4351 32.9081 26.4351Z" fill="white"/>
<path d="M32.1736 38.444C30.4842 38.444 28.7947 37.4621 27.9867 35.725C27.4725 34.592 27.399 33.3081 27.7663 32.0996C28.207 30.8911 29.015 29.9093 30.1169 29.3806C32.3205 28.2476 38.4908 29.9848 38.7112 30.0603L39.1519 30.2114L39.005 30.589C38.9316 30.8156 36.3606 36.8579 34.1569 37.9153C33.4958 38.2929 32.8347 38.444 32.1736 38.444ZM32.2471 29.8337C31.5125 29.8337 30.8514 29.9093 30.4842 30.1359C29.5292 30.589 28.8681 31.4198 28.5008 32.4017C28.1336 33.3836 28.207 34.5165 28.6478 35.4229C29.6027 37.3866 31.8798 38.2174 33.7897 37.3111C35.3322 36.5558 37.2421 32.6283 38.1236 30.7401C36.7279 30.3624 34.1569 29.8337 32.2471 29.8337Z" fill="white"/>
<path d="M30.4841 34.4412C30.3372 34.4412 30.2638 34.3657 30.1903 34.2902C30.0434 34.1391 30.1169 33.9125 30.2638 33.7615C31.8063 32.553 31.6594 30.4382 31.6594 30.4382C31.6594 30.2116 31.8063 30.0605 32.0267 30.0605C32.2471 30.0605 32.394 30.2116 32.394 30.4382C32.394 30.5137 32.5409 33.0062 30.7045 34.4412C30.631 34.4412 30.5576 34.4412 30.4841 34.4412Z" fill="white"/>
<path d="M34.5977 36.2538C34.5242 36.2538 34.4507 36.2538 34.3773 36.1783C34.3773 36.1783 32.8347 34.7432 30.9249 35.1964C30.7045 35.2719 30.5576 35.1209 30.4841 34.8943C30.4107 34.6677 30.5576 34.5166 30.778 34.4411C33.0551 33.8369 34.818 35.4985 34.8915 35.574C35.0384 35.7251 35.0384 35.9517 34.8915 36.1027C34.818 36.2538 34.6711 36.2538 34.5977 36.2538Z" fill="white"/>
<path d="M33.3489 48.2626C32.8347 48.2626 32.3205 48.1871 31.8064 47.9605C30.6311 47.5073 29.6761 46.6765 29.162 45.5435C28.6478 44.4106 28.5743 43.1266 28.9416 41.9182C29.3823 40.7097 30.1903 39.7278 31.2922 39.1991C33.4958 38.1417 39.6661 39.8034 39.8865 39.8789L40.4007 40.03L40.2538 40.4076C40.1803 40.6342 37.6094 46.6765 35.4057 47.7339C34.7446 48.036 34.01 48.2626 33.3489 48.2626ZM33.4958 39.5768C32.7613 39.5768 32.1002 39.6523 31.7329 39.8789C30.778 40.3321 30.1169 41.1629 29.7496 42.1448C29.3823 43.1266 29.4558 44.2596 29.8965 45.1659C30.3372 46.0722 31.1453 46.8275 32.1002 47.2052C33.0551 47.5828 34.1569 47.5073 35.0384 47.0541C36.581 46.2988 38.4908 42.3713 39.3723 40.4831C37.9766 40.181 35.3322 39.5768 33.4958 39.5768Z" fill="white"/>
<path d="M31.6594 44.2596C31.5125 44.2596 31.4391 44.184 31.3656 44.1085C31.2187 43.9575 31.2921 43.7309 31.4391 43.5798C32.9816 42.3714 32.8347 40.2565 32.8347 40.2565C32.8347 40.03 32.9816 39.8789 33.202 39.8789C33.4224 39.8789 33.5693 40.03 33.5693 40.2565C33.5693 40.3321 33.7162 42.8245 31.8798 44.2596C31.8063 44.184 31.7329 44.2596 31.6594 44.2596Z" fill="white"/>
<path d="M35.773 46.0721C35.6995 46.0721 35.626 46.0721 35.5526 45.9966C35.5526 45.9966 34.01 44.5616 32.1002 45.0147C31.8798 45.0903 31.7329 44.9392 31.6594 44.7126C31.586 44.486 31.7329 44.335 31.9533 44.2595C34.2304 43.6552 35.9933 45.3169 36.0668 45.3924C36.2137 45.5434 36.2137 45.77 36.0668 45.9211C35.9933 45.9966 35.9199 46.0721 35.773 46.0721Z" fill="white"/>
<path d="M23.212 28.8519C23.0651 28.8519 22.9917 28.7764 22.9182 28.7009C22.7713 28.5498 22.8448 28.3232 22.9917 28.1722L26.7379 25.3021C26.8848 25.151 27.1052 25.2265 27.2521 25.3776C27.399 25.5287 27.3256 25.7552 27.1786 25.9063L23.4324 28.7764C23.3589 28.8519 23.2855 28.8519 23.212 28.8519Z" fill="white"/>
<path d="M23.7997 40.4833C23.7262 40.4833 23.5793 40.4833 23.5059 40.4078C23.359 40.2567 23.359 40.0301 23.5059 39.8791L27.8398 35.4229C27.9867 35.2718 28.207 35.2718 28.354 35.4229C28.5009 35.5739 28.5009 35.8005 28.354 35.9516L24.0201 40.4078C24.0201 40.4833 23.8732 40.4833 23.7997 40.4833Z" fill="white"/>
<path d="M24.167 49.4715C24.0935 49.4715 23.9466 49.396 23.8731 49.3205C23.7262 49.1694 23.7262 48.9428 23.9466 48.7918L28.8681 44.4866C29.015 44.3356 29.2354 44.3356 29.3823 44.5622C29.5292 44.7132 29.5292 44.9398 29.3089 45.0909L24.3873 49.396C24.3139 49.4715 24.2404 49.4715 24.167 49.4715Z" fill="white"/>
</svg>
